<mxfile host="65bd71144e">
    <diagram id="IT3_-2kzGALsQ2sMA8hH" name="Page-1">
        <mxGraphModel dx="667" dy="497" grid="1" gridSize="10" guides="1" tooltips="1" connect="1" arrows="1" fold="1" page="1" pageScale="1" pageWidth="700" pageHeight="1400" math="0" shadow="0">
            <root>
                <mxCell id="0"/>
                <mxCell id="1" parent="0"/>
                <mxCell id="2" value="Assets" style="childLayout=tableLayout;recursiveResize=0;strokeColor=#98bf21;fillColor=#ffffff;shadow=0;rounded=0;glass=0;" parent="1" vertex="1">
                    <mxGeometry width="900" height="80" as="geometry"/>
                </mxCell>
                <mxCell id="3" style="shape=tableRow;horizontal=0;startSize=0;swimlaneHead=0;swimlaneBody=0;top=0;left=0;bottom=0;right=0;dropTarget=0;collapsible=0;recursiveResize=0;expand=0;fontStyle=0;strokeColor=inherit;fillColor=#ffffff;" parent="2" vertex="1">
                    <mxGeometry width="900" height="20" as="geometry"/>
                </mxCell>
                <mxCell id="4" value="from" style="connectable=0;recursiveResize=0;strokeColor=inherit;fillColor=#A7C942;align=center;fontStyle=1;fontColor=#ffffff;html=1;" parent="3" vertex="1">
                    <mxGeometry width="90" height="20" as="geometry">
                        <mxRectangle width="90" height="20" as="alternateBounds"/>
                    </mxGeometry>
                </mxCell>
                <mxCell id="5" value="to" style="connectable=0;recursiveResize=0;strokeColor=inherit;fillColor=#A7C942;align=center;fontStyle=1;fontColor=#ffffff;html=1;" parent="3" vertex="1">
                    <mxGeometry x="90" width="90" height="20" as="geometry">
                        <mxRectangle width="90" height="20" as="alternateBounds"/>
                    </mxGeometry>
                </mxCell>
                <mxCell id="6" value="flow" style="connectable=0;recursiveResize=0;strokeColor=inherit;fillColor=#A7C942;align=center;fontStyle=1;fontColor=#ffffff;html=1;" parent="3" vertex="1">
                    <mxGeometry x="180" width="90" height="20" as="geometry">
                        <mxRectangle width="90" height="20" as="alternateBounds"/>
                    </mxGeometry>
                </mxCell>
                <mxCell id="7" value="type" style="connectable=0;recursiveResize=0;strokeColor=inherit;fillColor=#A7C942;align=center;fontStyle=1;fontColor=#ffffff;html=1;" parent="3" vertex="1">
                    <mxGeometry x="270" width="90" height="20" as="geometry">
                        <mxRectangle width="90" height="20" as="alternateBounds"/>
                    </mxGeometry>
                </mxCell>
                <mxCell id="8" value="from_partition" style="connectable=0;recursiveResize=0;strokeColor=inherit;fillColor=#A7C942;align=center;fontStyle=1;fontColor=#ffffff;html=1;" parent="3" vertex="1">
                    <mxGeometry x="360" width="90" height="20" as="geometry">
                        <mxRectangle width="90" height="20" as="alternateBounds"/>
                    </mxGeometry>
                </mxCell>
                <mxCell id="9" value="to_partition" style="connectable=0;recursiveResize=0;strokeColor=inherit;fillColor=#A7C942;align=center;fontStyle=1;fontColor=#ffffff;html=1;" parent="3" vertex="1">
                    <mxGeometry x="450" width="90" height="20" as="geometry">
                        <mxRectangle width="90" height="20" as="alternateBounds"/>
                    </mxGeometry>
                </mxCell>
                <mxCell id="10" value="flow_partition" style="connectable=0;recursiveResize=0;strokeColor=inherit;fillColor=#A7C942;align=center;fontStyle=1;fontColor=#ffffff;html=1;" parent="3" vertex="1">
                    <mxGeometry x="540" width="90" height="20" as="geometry">
                        <mxRectangle width="90" height="20" as="alternateBounds"/>
                    </mxGeometry>
                </mxCell>
                <mxCell id="11" value="from_to_partition" style="connectable=0;recursiveResize=0;strokeColor=inherit;fillColor=#A7C942;align=center;fontStyle=1;fontColor=#ffffff;html=1;" parent="3" vertex="1">
                    <mxGeometry x="630" width="90" height="20" as="geometry">
                        <mxRectangle width="90" height="20" as="alternateBounds"/>
                    </mxGeometry>
                </mxCell>
                <mxCell id="12" value="from_flow_partition" style="connectable=0;recursiveResize=0;strokeColor=inherit;fillColor=#A7C942;align=center;fontStyle=1;fontColor=#ffffff;html=1;" parent="3" vertex="1">
                    <mxGeometry x="720" width="90" height="20" as="geometry">
                        <mxRectangle width="90" height="20" as="alternateBounds"/>
                    </mxGeometry>
                </mxCell>
                <mxCell id="13" value="to_flow_partition" style="connectable=0;recursiveResize=0;strokeColor=inherit;fillColor=#A7C942;align=center;fontStyle=1;fontColor=#ffffff;html=1;" parent="3" vertex="1">
                    <mxGeometry x="810" width="90" height="20" as="geometry">
                        <mxRectangle width="90" height="20" as="alternateBounds"/>
                    </mxGeometry>
                </mxCell>
                <mxCell id="14" style="shape=tableRow;horizontal=0;startSize=0;swimlaneHead=0;swimlaneBody=0;top=0;left=0;bottom=0;right=0;dropTarget=0;collapsible=0;recursiveResize=0;expand=0;fontStyle=0;strokeColor=inherit;fillColor=#ffffff;" parent="2" vertex="1">
                    <mxGeometry y="20" width="900" height="20" as="geometry"/>
                </mxCell>
                <mxCell id="15" value="S" style="connectable=0;recursiveResize=0;strokeColor=inherit;fillColor=#ffffff;align=center;fontStyle=0;fontColor=030303;html=1;" parent="14" vertex="1">
                    <mxGeometry width="90" height="20" as="geometry">
                        <mxRectangle width="90" height="20" as="alternateBounds"/>
                    </mxGeometry>
                </mxCell>
                <mxCell id="16" value="I" style="connectable=0;recursiveResize=0;strokeColor=inherit;fillColor=#ffffff;align=center;fontStyle=0;fontColor=030303;html=1;" parent="14" vertex="1">
                    <mxGeometry x="90" width="90" height="20" as="geometry">
                        <mxRectangle width="90" height="20" as="alternateBounds"/>
                    </mxGeometry>
                </mxCell>
                <mxCell id="17" value="infection" style="connectable=0;recursiveResize=0;strokeColor=inherit;fillColor=#ffffff;align=center;fontStyle=0;fontColor=030303;html=1;" parent="14" vertex="1">
                    <mxGeometry x="180" width="90" height="20" as="geometry">
                        <mxRectangle width="90" height="20" as="alternateBounds"/>
                    </mxGeometry>
                </mxCell>
                <mxCell id="18" value="per_capita" style="connectable=0;recursiveResize=0;strokeColor=inherit;fillColor=#ffffff;align=center;fontStyle=0;fontColor=030303;html=1;" parent="14" vertex="1">
                    <mxGeometry x="270" width="90" height="20" as="geometry">
                        <mxRectangle width="90" height="20" as="alternateBounds"/>
                    </mxGeometry>
                </mxCell>
                <mxCell id="19" value="Epi" style="connectable=0;recursiveResize=0;strokeColor=inherit;fillColor=#ffffff;align=center;fontStyle=0;fontColor=030303;html=1;" parent="14" vertex="1">
                    <mxGeometry x="360" width="90" height="20" as="geometry">
                        <mxRectangle width="90" height="20" as="alternateBounds"/>
                    </mxGeometry>
                </mxCell>
                <mxCell id="20" value="Epi" style="connectable=0;recursiveResize=0;strokeColor=inherit;fillColor=#ffffff;align=center;fontStyle=0;fontColor=030303;html=1;" parent="14" vertex="1">
                    <mxGeometry x="450" width="90" height="20" as="geometry">
                        <mxRectangle width="90" height="20" as="alternateBounds"/>
                    </mxGeometry>
                </mxCell>
                <mxCell id="21" value="Epi" style="connectable=0;recursiveResize=0;strokeColor=inherit;fillColor=#ffffff;align=center;fontStyle=0;fontColor=030303;html=1;" parent="14" vertex="1">
                    <mxGeometry x="540" width="90" height="20" as="geometry">
                        <mxRectangle width="90" height="20" as="alternateBounds"/>
                    </mxGeometry>
                </mxCell>
                <mxCell id="22" value="Vax" style="connectable=0;recursiveResize=0;strokeColor=inherit;fillColor=#ffffff;align=center;fontStyle=0;fontColor=030303;html=1;" parent="14" vertex="1">
                    <mxGeometry x="630" width="90" height="20" as="geometry">
                        <mxRectangle width="90" height="20" as="alternateBounds"/>
                    </mxGeometry>
                </mxCell>
                <mxCell id="23" value="Vax" style="connectable=0;recursiveResize=0;strokeColor=inherit;fillColor=#ffffff;align=center;fontStyle=0;fontColor=030303;html=1;" parent="14" vertex="1">
                    <mxGeometry x="720" width="90" height="20" as="geometry">
                        <mxRectangle width="90" height="20" as="alternateBounds"/>
                    </mxGeometry>
                </mxCell>
                <mxCell id="24" value="Null" style="connectable=0;recursiveResize=0;strokeColor=inherit;fillColor=#ffffff;align=center;fontStyle=0;fontColor=030303;html=1;" parent="14" vertex="1">
                    <mxGeometry x="810" width="90" height="20" as="geometry">
                        <mxRectangle width="90" height="20" as="alternateBounds"/>
                    </mxGeometry>
                </mxCell>
                <mxCell id="25" style="shape=tableRow;horizontal=0;startSize=0;swimlaneHead=0;swimlaneBody=0;top=0;left=0;bottom=0;right=0;dropTarget=0;collapsible=0;recursiveResize=0;expand=0;fontStyle=0;strokeColor=inherit;fillColor=#ffffff;" parent="2" vertex="1">
                    <mxGeometry y="40" width="900" height="20" as="geometry"/>
                </mxCell>
                <mxCell id="26" value="I" style="connectable=0;recursiveResize=0;strokeColor=inherit;fillColor=#EAF2D3;align=center;fontStyle=0;fontColor=030303;html=1;" parent="25" vertex="1">
                    <mxGeometry width="90" height="20" as="geometry">
                        <mxRectangle width="90" height="20" as="alternateBounds"/>
                    </mxGeometry>
                </mxCell>
                <mxCell id="27" value="R" style="connectable=0;recursiveResize=0;strokeColor=inherit;fillColor=#EAF2D3;align=center;fontStyle=0;fontColor=030303;html=1;" parent="25" vertex="1">
                    <mxGeometry x="90" width="90" height="20" as="geometry">
                        <mxRectangle width="90" height="20" as="alternateBounds"/>
                    </mxGeometry>
                </mxCell>
                <mxCell id="28" value="gamma" style="connectable=0;recursiveResize=0;strokeColor=inherit;fillColor=#EAF2D3;align=center;fontStyle=0;fontColor=030303;html=1;" parent="25" vertex="1">
                    <mxGeometry x="180" width="90" height="20" as="geometry">
                        <mxRectangle width="90" height="20" as="alternateBounds"/>
                    </mxGeometry>
                </mxCell>
                <mxCell id="29" value="per_capita" style="connectable=0;recursiveResize=0;strokeColor=inherit;fillColor=#EAF2D3;align=center;fontStyle=0;fontColor=030303;html=1;" parent="25" vertex="1">
                    <mxGeometry x="270" width="90" height="20" as="geometry">
                        <mxRectangle width="90" height="20" as="alternateBounds"/>
                    </mxGeometry>
                </mxCell>
                <mxCell id="30" value="Epi" style="connectable=0;recursiveResize=0;strokeColor=inherit;fillColor=#EAF2D3;align=center;fontStyle=0;fontColor=030303;html=1;" parent="25" vertex="1">
                    <mxGeometry x="360" width="90" height="20" as="geometry">
                        <mxRectangle width="90" height="20" as="alternateBounds"/>
                    </mxGeometry>
                </mxCell>
                <mxCell id="31" value="Epi" style="connectable=0;recursiveResize=0;strokeColor=inherit;fillColor=#EAF2D3;align=center;fontStyle=0;fontColor=030303;html=1;" parent="25" vertex="1">
                    <mxGeometry x="450" width="90" height="20" as="geometry">
                        <mxRectangle width="90" height="20" as="alternateBounds"/>
                    </mxGeometry>
                </mxCell>
                <mxCell id="32" value="Epi" style="connectable=0;recursiveResize=0;strokeColor=inherit;fillColor=#EAF2D3;align=center;fontStyle=0;fontColor=030303;html=1;" parent="25" vertex="1">
                    <mxGeometry x="540" width="90" height="20" as="geometry">
                        <mxRectangle width="90" height="20" as="alternateBounds"/>
                    </mxGeometry>
                </mxCell>
                <mxCell id="33" value="Vax" style="connectable=0;recursiveResize=0;strokeColor=inherit;fillColor=#EAF2D3;align=center;fontStyle=0;fontColor=030303;html=1;" parent="25" vertex="1">
                    <mxGeometry x="630" width="90" height="20" as="geometry">
                        <mxRectangle width="90" height="20" as="alternateBounds"/>
                    </mxGeometry>
                </mxCell>
                <mxCell id="34" value="Vax" style="connectable=0;recursiveResize=0;strokeColor=inherit;fillColor=#EAF2D3;align=center;fontStyle=0;fontColor=030303;html=1;" parent="25" vertex="1">
                    <mxGeometry x="720" width="90" height="20" as="geometry">
                        <mxRectangle width="90" height="20" as="alternateBounds"/>
                    </mxGeometry>
                </mxCell>
                <mxCell id="35" value="Null" style="connectable=0;recursiveResize=0;strokeColor=inherit;fillColor=#EAF2D3;align=center;fontStyle=0;fontColor=030303;html=1;" parent="25" vertex="1">
                    <mxGeometry x="810" width="90" height="20" as="geometry">
                        <mxRectangle width="90" height="20" as="alternateBounds"/>
                    </mxGeometry>
                </mxCell>
                <mxCell id="36" style="shape=tableRow;horizontal=0;startSize=0;swimlaneHead=0;swimlaneBody=0;top=0;left=0;bottom=0;right=0;dropTarget=0;collapsible=0;recursiveResize=0;expand=0;fontStyle=0;strokeColor=inherit;fillColor=#ffffff;" parent="2" vertex="1">
                    <mxGeometry y="60" width="900" height="20" as="geometry"/>
                </mxCell>
                <mxCell id="37" value="S.unvax" style="connectable=0;recursiveResize=0;strokeColor=inherit;fillColor=#ffffff;align=center;fontStyle=0;fontColor=030303;html=1;" parent="36" vertex="1">
                    <mxGeometry width="90" height="20" as="geometry">
                        <mxRectangle width="90" height="20" as="alternateBounds"/>
                    </mxGeometry>
                </mxCell>
                <mxCell id="38" value="S.vax" style="connectable=0;recursiveResize=0;strokeColor=inherit;fillColor=#ffffff;align=center;fontStyle=0;fontColor=030303;html=1;" parent="36" vertex="1">
                    <mxGeometry x="90" width="90" height="20" as="geometry">
                        <mxRectangle width="90" height="20" as="alternateBounds"/>
                    </mxGeometry>
                </mxCell>
                <mxCell id="39" value="vax_rate" style="connectable=0;recursiveResize=0;strokeColor=inherit;fillColor=#ffffff;align=center;fontStyle=0;fontColor=030303;html=1;" parent="36" vertex="1">
                    <mxGeometry x="180" width="90" height="20" as="geometry">
                        <mxRectangle width="90" height="20" as="alternateBounds"/>
                    </mxGeometry>
                </mxCell>
                <mxCell id="40" value="per_capita" style="connectable=0;recursiveResize=0;strokeColor=inherit;fillColor=#ffffff;align=center;fontStyle=0;fontColor=030303;html=1;" parent="36" vertex="1">
                    <mxGeometry x="270" width="90" height="20" as="geometry">
                        <mxRectangle width="90" height="20" as="alternateBounds"/>
                    </mxGeometry>
                </mxCell>
                <mxCell id="41" value="Epi.Vax" style="connectable=0;recursiveResize=0;strokeColor=inherit;fillColor=#ffffff;align=center;fontStyle=0;fontColor=030303;html=1;" parent="36" vertex="1">
                    <mxGeometry x="360" width="90" height="20" as="geometry">
                        <mxRectangle width="90" height="20" as="alternateBounds"/>
                    </mxGeometry>
                </mxCell>
                <mxCell id="42" value="Epi.Vax" style="connectable=0;recursiveResize=0;strokeColor=inherit;fillColor=#ffffff;align=center;fontStyle=0;fontColor=030303;html=1;" parent="36" vertex="1">
                    <mxGeometry x="450" width="90" height="20" as="geometry">
                        <mxRectangle width="90" height="20" as="alternateBounds"/>
                    </mxGeometry>
                </mxCell>
                <mxCell id="43" value="Vax" style="connectable=0;recursiveResize=0;strokeColor=inherit;fillColor=#ffffff;align=center;fontStyle=0;fontColor=030303;html=1;" parent="36" vertex="1">
                    <mxGeometry x="540" width="90" height="20" as="geometry">
                        <mxRectangle width="90" height="20" as="alternateBounds"/>
                    </mxGeometry>
                </mxCell>
                <mxCell id="44" value="" style="connectable=0;recursiveResize=0;strokeColor=inherit;fillColor=#ffffff;align=center;fontStyle=0;fontColor=030303;html=1;" parent="36" vertex="1">
                    <mxGeometry x="630" width="90" height="20" as="geometry">
                        <mxRectangle width="90" height="20" as="alternateBounds"/>
                    </mxGeometry>
                </mxCell>
                <mxCell id="45" value="" style="connectable=0;recursiveResize=0;strokeColor=inherit;fillColor=#ffffff;align=center;fontStyle=0;fontColor=030303;html=1;" parent="36" vertex="1">
                    <mxGeometry x="720" width="90" height="20" as="geometry">
                        <mxRectangle width="90" height="20" as="alternateBounds"/>
                    </mxGeometry>
                </mxCell>
                <mxCell id="46" value="Null" style="connectable=0;recursiveResize=0;strokeColor=inherit;fillColor=#ffffff;align=center;fontStyle=0;fontColor=030303;html=1;" parent="36" vertex="1">
                    <mxGeometry x="810" width="90" height="20" as="geometry">
                        <mxRectangle width="90" height="20" as="alternateBounds"/>
                    </mxGeometry>
                </mxCell>
                <mxCell id="47" value="Assets" style="childLayout=tableLayout;recursiveResize=0;strokeColor=#98bf21;fillColor=#ffffff;shadow=0;rounded=0;glass=0;" vertex="1" parent="1">
                    <mxGeometry y="120" width="900" height="80" as="geometry"/>
                </mxCell>
                <mxCell id="48" style="shape=tableRow;horizontal=0;startSize=0;swimlaneHead=0;swimlaneBody=0;top=0;left=0;bottom=0;right=0;dropTarget=0;collapsible=0;recursiveResize=0;expand=0;fontStyle=0;strokeColor=inherit;fillColor=#ffffff;" vertex="1" parent="47">
                    <mxGeometry width="900" height="20" as="geometry"/>
                </mxCell>
                <mxCell id="49" value="from" style="connectable=0;recursiveResize=0;strokeColor=inherit;fillColor=#A7C942;align=center;fontStyle=1;fontColor=#ffffff;html=1;" vertex="1" parent="48">
                    <mxGeometry width="90" height="20" as="geometry">
                        <mxRectangle width="90" height="20" as="alternateBounds"/>
                    </mxGeometry>
                </mxCell>
                <mxCell id="50" value="to" style="connectable=0;recursiveResize=0;strokeColor=inherit;fillColor=#A7C942;align=center;fontStyle=1;fontColor=#ffffff;html=1;" vertex="1" parent="48">
                    <mxGeometry x="90" width="90" height="20" as="geometry">
                        <mxRectangle width="90" height="20" as="alternateBounds"/>
                    </mxGeometry>
                </mxCell>
                <mxCell id="51" value="flow" style="connectable=0;recursiveResize=0;strokeColor=inherit;fillColor=#A7C942;align=center;fontStyle=1;fontColor=#ffffff;html=1;" vertex="1" parent="48">
                    <mxGeometry x="180" width="90" height="20" as="geometry">
                        <mxRectangle width="90" height="20" as="alternateBounds"/>
                    </mxGeometry>
                </mxCell>
                <mxCell id="52" value="type" style="connectable=0;recursiveResize=0;strokeColor=inherit;fillColor=#A7C942;align=center;fontStyle=1;fontColor=#ffffff;html=1;" vertex="1" parent="48">
                    <mxGeometry x="270" width="90" height="20" as="geometry">
                        <mxRectangle width="90" height="20" as="alternateBounds"/>
                    </mxGeometry>
                </mxCell>
                <mxCell id="53" value="from_partition" style="connectable=0;recursiveResize=0;strokeColor=inherit;fillColor=#A7C942;align=center;fontStyle=1;fontColor=#ffffff;html=1;" vertex="1" parent="48">
                    <mxGeometry x="360" width="90" height="20" as="geometry">
                        <mxRectangle width="90" height="20" as="alternateBounds"/>
                    </mxGeometry>
                </mxCell>
                <mxCell id="54" value="to_partition" style="connectable=0;recursiveResize=0;strokeColor=inherit;fillColor=#A7C942;align=center;fontStyle=1;fontColor=#ffffff;html=1;" vertex="1" parent="48">
                    <mxGeometry x="450" width="90" height="20" as="geometry">
                        <mxRectangle width="90" height="20" as="alternateBounds"/>
                    </mxGeometry>
                </mxCell>
                <mxCell id="55" value="flow_partition" style="connectable=0;recursiveResize=0;strokeColor=inherit;fillColor=#A7C942;align=center;fontStyle=1;fontColor=#ffffff;html=1;" vertex="1" parent="48">
                    <mxGeometry x="540" width="90" height="20" as="geometry">
                        <mxRectangle width="90" height="20" as="alternateBounds"/>
                    </mxGeometry>
                </mxCell>
                <mxCell id="56" value="from_to_partition" style="connectable=0;recursiveResize=0;strokeColor=inherit;fillColor=#A7C942;align=center;fontStyle=1;fontColor=#ffffff;html=1;" vertex="1" parent="48">
                    <mxGeometry x="630" width="90" height="20" as="geometry">
                        <mxRectangle width="90" height="20" as="alternateBounds"/>
                    </mxGeometry>
                </mxCell>
                <mxCell id="57" value="from_flow_partition" style="connectable=0;recursiveResize=0;strokeColor=inherit;fillColor=#A7C942;align=center;fontStyle=1;fontColor=#ffffff;html=1;" vertex="1" parent="48">
                    <mxGeometry x="720" width="90" height="20" as="geometry">
                        <mxRectangle width="90" height="20" as="alternateBounds"/>
                    </mxGeometry>
                </mxCell>
                <mxCell id="58" value="to_flow_partition" style="connectable=0;recursiveResize=0;strokeColor=inherit;fillColor=#A7C942;align=center;fontStyle=1;fontColor=#ffffff;html=1;" vertex="1" parent="48">
                    <mxGeometry x="810" width="90" height="20" as="geometry">
                        <mxRectangle width="90" height="20" as="alternateBounds"/>
                    </mxGeometry>
                </mxCell>
                <mxCell id="59" style="shape=tableRow;horizontal=0;startSize=0;swimlaneHead=0;swimlaneBody=0;top=0;left=0;bottom=0;right=0;dropTarget=0;collapsible=0;recursiveResize=0;expand=0;fontStyle=0;strokeColor=inherit;fillColor=#ffffff;" vertex="1" parent="47">
                    <mxGeometry y="20" width="900" height="20" as="geometry"/>
                </mxCell>
                <mxCell id="60" value="S" style="connectable=0;recursiveResize=0;strokeColor=inherit;fillColor=#ffffff;align=center;fontStyle=0;fontColor=030303;html=1;" vertex="1" parent="59">
                    <mxGeometry width="90" height="20" as="geometry">
                        <mxRectangle width="90" height="20" as="alternateBounds"/>
                    </mxGeometry>
                </mxCell>
                <mxCell id="61" value="I" style="connectable=0;recursiveResize=0;strokeColor=inherit;fillColor=#ffffff;align=center;fontStyle=0;fontColor=030303;html=1;" vertex="1" parent="59">
                    <mxGeometry x="90" width="90" height="20" as="geometry">
                        <mxRectangle width="90" height="20" as="alternateBounds"/>
                    </mxGeometry>
                </mxCell>
                <mxCell id="62" value="infection" style="connectable=0;recursiveResize=0;strokeColor=inherit;fillColor=#ffffff;align=center;fontStyle=0;fontColor=030303;html=1;" vertex="1" parent="59">
                    <mxGeometry x="180" width="90" height="20" as="geometry">
                        <mxRectangle width="90" height="20" as="alternateBounds"/>
                    </mxGeometry>
                </mxCell>
                <mxCell id="63" value="per_capita" style="connectable=0;recursiveResize=0;strokeColor=inherit;fillColor=#ffffff;align=center;fontStyle=0;fontColor=030303;html=1;" vertex="1" parent="59">
                    <mxGeometry x="270" width="90" height="20" as="geometry">
                        <mxRectangle width="90" height="20" as="alternateBounds"/>
                    </mxGeometry>
                </mxCell>
                <mxCell id="64" value="Epi" style="connectable=0;recursiveResize=0;strokeColor=inherit;fillColor=#ffffff;align=center;fontStyle=0;fontColor=030303;html=1;" vertex="1" parent="59">
                    <mxGeometry x="360" width="90" height="20" as="geometry">
                        <mxRectangle width="90" height="20" as="alternateBounds"/>
                    </mxGeometry>
                </mxCell>
                <mxCell id="65" value="Epi" style="connectable=0;recursiveResize=0;strokeColor=inherit;fillColor=#ffffff;align=center;fontStyle=0;fontColor=030303;html=1;" vertex="1" parent="59">
                    <mxGeometry x="450" width="90" height="20" as="geometry">
                        <mxRectangle width="90" height="20" as="alternateBounds"/>
                    </mxGeometry>
                </mxCell>
                <mxCell id="66" value="Epi" style="connectable=0;recursiveResize=0;strokeColor=inherit;fillColor=#ffffff;align=center;fontStyle=0;fontColor=030303;html=1;" vertex="1" parent="59">
                    <mxGeometry x="540" width="90" height="20" as="geometry">
                        <mxRectangle width="90" height="20" as="alternateBounds"/>
                    </mxGeometry>
                </mxCell>
                <mxCell id="67" value="Vax" style="connectable=0;recursiveResize=0;strokeColor=inherit;fillColor=#ffffff;align=center;fontStyle=0;fontColor=030303;html=1;" vertex="1" parent="59">
                    <mxGeometry x="630" width="90" height="20" as="geometry">
                        <mxRectangle width="90" height="20" as="alternateBounds"/>
                    </mxGeometry>
                </mxCell>
                <mxCell id="68" value="Vax" style="connectable=0;recursiveResize=0;strokeColor=inherit;fillColor=#ffffff;align=center;fontStyle=0;fontColor=030303;html=1;" vertex="1" parent="59">
                    <mxGeometry x="720" width="90" height="20" as="geometry">
                        <mxRectangle width="90" height="20" as="alternateBounds"/>
                    </mxGeometry>
                </mxCell>
                <mxCell id="69" value="Null" style="connectable=0;recursiveResize=0;strokeColor=inherit;fillColor=#ffffff;align=center;fontStyle=0;fontColor=030303;html=1;" vertex="1" parent="59">
                    <mxGeometry x="810" width="90" height="20" as="geometry">
                        <mxRectangle width="90" height="20" as="alternateBounds"/>
                    </mxGeometry>
                </mxCell>
                <mxCell id="70" style="shape=tableRow;horizontal=0;startSize=0;swimlaneHead=0;swimlaneBody=0;top=0;left=0;bottom=0;right=0;dropTarget=0;collapsible=0;recursiveResize=0;expand=0;fontStyle=0;strokeColor=inherit;fillColor=#ffffff;" vertex="1" parent="47">
                    <mxGeometry y="40" width="900" height="20" as="geometry"/>
                </mxCell>
                <mxCell id="71" value="I" style="connectable=0;recursiveResize=0;strokeColor=inherit;fillColor=#EAF2D3;align=center;fontStyle=0;fontColor=030303;html=1;" vertex="1" parent="70">
                    <mxGeometry width="90" height="20" as="geometry">
                        <mxRectangle width="90" height="20" as="alternateBounds"/>
                    </mxGeometry>
                </mxCell>
                <mxCell id="72" value="R" style="connectable=0;recursiveResize=0;strokeColor=inherit;fillColor=#EAF2D3;align=center;fontStyle=0;fontColor=030303;html=1;" vertex="1" parent="70">
                    <mxGeometry x="90" width="90" height="20" as="geometry">
                        <mxRectangle width="90" height="20" as="alternateBounds"/>
                    </mxGeometry>
                </mxCell>
                <mxCell id="73" value="gamma" style="connectable=0;recursiveResize=0;strokeColor=inherit;fillColor=#EAF2D3;align=center;fontStyle=0;fontColor=030303;html=1;" vertex="1" parent="70">
                    <mxGeometry x="180" width="90" height="20" as="geometry">
                        <mxRectangle width="90" height="20" as="alternateBounds"/>
                    </mxGeometry>
                </mxCell>
                <mxCell id="74" value="per_capita" style="connectable=0;recursiveResize=0;strokeColor=inherit;fillColor=#EAF2D3;align=center;fontStyle=0;fontColor=030303;html=1;" vertex="1" parent="70">
                    <mxGeometry x="270" width="90" height="20" as="geometry">
                        <mxRectangle width="90" height="20" as="alternateBounds"/>
                    </mxGeometry>
                </mxCell>
                <mxCell id="75" value="Epi" style="connectable=0;recursiveResize=0;strokeColor=inherit;fillColor=#EAF2D3;align=center;fontStyle=0;fontColor=030303;html=1;" vertex="1" parent="70">
                    <mxGeometry x="360" width="90" height="20" as="geometry">
                        <mxRectangle width="90" height="20" as="alternateBounds"/>
                    </mxGeometry>
                </mxCell>
                <mxCell id="76" value="Epi" style="connectable=0;recursiveResize=0;strokeColor=inherit;fillColor=#EAF2D3;align=center;fontStyle=0;fontColor=030303;html=1;" vertex="1" parent="70">
                    <mxGeometry x="450" width="90" height="20" as="geometry">
                        <mxRectangle width="90" height="20" as="alternateBounds"/>
                    </mxGeometry>
                </mxCell>
                <mxCell id="77" value="Epi" style="connectable=0;recursiveResize=0;strokeColor=inherit;fillColor=#EAF2D3;align=center;fontStyle=0;fontColor=030303;html=1;" vertex="1" parent="70">
                    <mxGeometry x="540" width="90" height="20" as="geometry">
                        <mxRectangle width="90" height="20" as="alternateBounds"/>
                    </mxGeometry>
                </mxCell>
                <mxCell id="78" value="Vax" style="connectable=0;recursiveResize=0;strokeColor=inherit;fillColor=#EAF2D3;align=center;fontStyle=0;fontColor=030303;html=1;" vertex="1" parent="70">
                    <mxGeometry x="630" width="90" height="20" as="geometry">
                        <mxRectangle width="90" height="20" as="alternateBounds"/>
                    </mxGeometry>
                </mxCell>
                <mxCell id="79" value="Vax" style="connectable=0;recursiveResize=0;strokeColor=inherit;fillColor=#EAF2D3;align=center;fontStyle=0;fontColor=030303;html=1;" vertex="1" parent="70">
                    <mxGeometry x="720" width="90" height="20" as="geometry">
                        <mxRectangle width="90" height="20" as="alternateBounds"/>
                    </mxGeometry>
                </mxCell>
                <mxCell id="80" value="Null" style="connectable=0;recursiveResize=0;strokeColor=inherit;fillColor=#EAF2D3;align=center;fontStyle=0;fontColor=030303;html=1;" vertex="1" parent="70">
                    <mxGeometry x="810" width="90" height="20" as="geometry">
                        <mxRectangle width="90" height="20" as="alternateBounds"/>
                    </mxGeometry>
                </mxCell>
                <mxCell id="81" style="shape=tableRow;horizontal=0;startSize=0;swimlaneHead=0;swimlaneBody=0;top=0;left=0;bottom=0;right=0;dropTarget=0;collapsible=0;recursiveResize=0;expand=0;fontStyle=0;strokeColor=inherit;fillColor=#ffffff;" vertex="1" parent="47">
                    <mxGeometry y="60" width="900" height="20" as="geometry"/>
                </mxCell>
                <mxCell id="82" value="S.unvax" style="connectable=0;recursiveResize=0;strokeColor=inherit;fillColor=#ffffff;align=center;fontStyle=0;fontColor=030303;html=1;" vertex="1" parent="81">
                    <mxGeometry width="90" height="20" as="geometry">
                        <mxRectangle width="90" height="20" as="alternateBounds"/>
                    </mxGeometry>
                </mxCell>
                <mxCell id="83" value="S.vax" style="connectable=0;recursiveResize=0;strokeColor=inherit;fillColor=#ffffff;align=center;fontStyle=0;fontColor=030303;html=1;" vertex="1" parent="81">
                    <mxGeometry x="90" width="90" height="20" as="geometry">
                        <mxRectangle width="90" height="20" as="alternateBounds"/>
                    </mxGeometry>
                </mxCell>
                <mxCell id="84" value="vax_rate" style="connectable=0;recursiveResize=0;strokeColor=inherit;fillColor=#ffffff;align=center;fontStyle=0;fontColor=030303;html=1;" vertex="1" parent="81">
                    <mxGeometry x="180" width="90" height="20" as="geometry">
                        <mxRectangle width="90" height="20" as="alternateBounds"/>
                    </mxGeometry>
                </mxCell>
                <mxCell id="85" value="per_capita" style="connectable=0;recursiveResize=0;strokeColor=inherit;fillColor=#ffffff;align=center;fontStyle=0;fontColor=030303;html=1;" vertex="1" parent="81">
                    <mxGeometry x="270" width="90" height="20" as="geometry">
                        <mxRectangle width="90" height="20" as="alternateBounds"/>
                    </mxGeometry>
                </mxCell>
                <mxCell id="86" value="Epi.Vax" style="connectable=0;recursiveResize=0;strokeColor=inherit;fillColor=#ffffff;align=center;fontStyle=0;fontColor=030303;html=1;" vertex="1" parent="81">
                    <mxGeometry x="360" width="90" height="20" as="geometry">
                        <mxRectangle width="90" height="20" as="alternateBounds"/>
                    </mxGeometry>
                </mxCell>
                <mxCell id="87" value="Epi.Vax" style="connectable=0;recursiveResize=0;strokeColor=inherit;fillColor=#ffffff;align=center;fontStyle=0;fontColor=030303;html=1;" vertex="1" parent="81">
                    <mxGeometry x="450" width="90" height="20" as="geometry">
                        <mxRectangle width="90" height="20" as="alternateBounds"/>
                    </mxGeometry>
                </mxCell>
                <mxCell id="88" value="Vax" style="connectable=0;recursiveResize=0;strokeColor=inherit;fillColor=#ffffff;align=center;fontStyle=0;fontColor=030303;html=1;" vertex="1" parent="81">
                    <mxGeometry x="540" width="90" height="20" as="geometry">
                        <mxRectangle width="90" height="20" as="alternateBounds"/>
                    </mxGeometry>
                </mxCell>
                <mxCell id="89" value="" style="connectable=0;recursiveResize=0;strokeColor=inherit;fillColor=#ffffff;align=center;fontStyle=0;fontColor=030303;html=1;" vertex="1" parent="81">
                    <mxGeometry x="630" width="90" height="20" as="geometry">
                        <mxRectangle width="90" height="20" as="alternateBounds"/>
                    </mxGeometry>
                </mxCell>
                <mxCell id="90" value="" style="connectable=0;recursiveResize=0;strokeColor=inherit;fillColor=#ffffff;align=center;fontStyle=0;fontColor=030303;html=1;" vertex="1" parent="81">
                    <mxGeometry x="720" width="90" height="20" as="geometry">
                        <mxRectangle width="90" height="20" as="alternateBounds"/>
                    </mxGeometry>
                </mxCell>
                <mxCell id="91" value="Null" style="connectable=0;recursiveResize=0;strokeColor=inherit;fillColor=#ffffff;align=center;fontStyle=0;fontColor=030303;html=1;" vertex="1" parent="81">
                    <mxGeometry x="810" width="90" height="20" as="geometry">
                        <mxRectangle width="90" height="20" as="alternateBounds"/>
                    </mxGeometry>
                </mxCell>
            </root>
        </mxGraphModel>
    </diagram>
</mxfile>